<svg width="42" height="24" viewBox="0 0 42 24" fill="none" xmlns="http://www.w3.org/2000/svg">
<rect width="42" height="24" rx="12" fill="#2D3134"/>
<path d="M14.5241 17.1392C13.8414 17.1392 13.2315 17.0215 12.6946 16.7862C12.161 16.5509 11.7384 16.2244 11.4268 15.8068C11.1186 15.3859 10.9529 14.8987 10.9297 14.3452H12.4908C12.5107 14.6468 12.6117 14.9086 12.794 15.1307C12.9796 15.3494 13.2216 15.5185 13.5199 15.6378C13.8182 15.7571 14.1496 15.8168 14.5142 15.8168C14.9152 15.8168 15.2699 15.7472 15.5781 15.608C15.8897 15.4687 16.1333 15.2749 16.3089 15.0263C16.4846 14.7744 16.5724 14.4844 16.5724 14.1562C16.5724 13.8149 16.4846 13.5149 16.3089 13.2564C16.1366 12.9946 15.883 12.7891 15.5483 12.6399C15.2169 12.4908 14.8158 12.4162 14.3452 12.4162H13.4851V11.1634H14.3452C14.723 11.1634 15.0545 11.0954 15.3395 10.9595C15.6278 10.8236 15.8532 10.6347 16.0156 10.3928C16.178 10.1475 16.2592 9.8608 16.2592 9.53267C16.2592 9.2178 16.188 8.94437 16.0455 8.71236C15.9063 8.47704 15.7074 8.29309 15.4489 8.16051C15.1937 8.02794 14.892 7.96165 14.544 7.96165C14.2126 7.96165 13.9027 8.02296 13.6143 8.1456C13.3293 8.26491 13.0973 8.43726 12.9183 8.66264C12.7393 8.88471 12.6432 9.15151 12.63 9.46307H11.1435C11.16 8.91288 11.3224 8.42898 11.6307 8.01136C11.9422 7.59375 12.3532 7.26728 12.8636 7.03196C13.3741 6.79664 13.9408 6.67898 14.5639 6.67898C15.2169 6.67898 15.7803 6.80658 16.2543 7.06179C16.7315 7.31368 17.0994 7.65009 17.358 8.07102C17.6198 8.49195 17.7491 8.95265 17.7457 9.45312C17.7491 10.0232 17.59 10.5071 17.2685 10.9048C16.9503 11.3026 16.526 11.5694 15.9957 11.7053V11.7848C16.6719 11.8875 17.1955 12.156 17.5668 12.5902C17.9413 13.0244 18.1269 13.563 18.1236 14.206C18.1269 14.7661 17.9711 15.2682 17.6562 15.7124C17.3447 16.1565 16.9188 16.5062 16.3786 16.7614C15.8383 17.0133 15.2202 17.1392 14.5241 17.1392ZM20.7013 17.0945C20.4296 17.0945 20.1959 16.9983 20.0004 16.8061C19.8048 16.6106 19.707 16.3752 19.707 16.1001C19.707 15.8284 19.8048 15.5964 20.0004 15.4041C20.1959 15.2086 20.4296 15.1108 20.7013 15.1108C20.9731 15.1108 21.2068 15.2086 21.4023 15.4041C21.5979 15.5964 21.6957 15.8284 21.6957 16.1001C21.6957 16.2824 21.6493 16.4498 21.5565 16.6023C21.467 16.7514 21.3477 16.8707 21.1985 16.9602C21.0494 17.0497 20.8836 17.0945 20.7013 17.0945ZM26.8636 17.1392C26.2405 17.1392 25.6804 17.0199 25.1832 16.7812C24.6894 16.5393 24.295 16.2079 24 15.7869C23.705 15.366 23.5476 14.8854 23.5277 14.3452H25.0192C25.0556 14.7827 25.2495 15.1423 25.6009 15.424C25.9522 15.7057 26.3731 15.8466 26.8636 15.8466C27.2547 15.8466 27.6011 15.7571 27.9027 15.5781C28.2076 15.3958 28.4463 15.1456 28.6186 14.8274C28.7943 14.5092 28.8821 14.1463 28.8821 13.7386C28.8821 13.3243 28.7926 12.9548 28.6136 12.63C28.4347 12.3052 28.1877 12.05 27.8729 11.8643C27.5613 11.6787 27.2034 11.5843 26.799 11.581C26.4908 11.581 26.1809 11.634 25.8693 11.7401C25.5578 11.8461 25.3059 11.9853 25.1136 12.1577L23.7067 11.9489L24.2784 6.81818H29.8764V8.13565H25.5561L25.233 10.9844H25.2926C25.4915 10.7921 25.755 10.6314 26.0831 10.5021C26.4145 10.3729 26.7692 10.3082 27.147 10.3082C27.7668 10.3082 28.3187 10.4557 28.8026 10.7507C29.2898 11.0457 29.6726 11.4484 29.951 11.9588C30.2327 12.4659 30.3719 13.0492 30.3686 13.7088C30.3719 14.3684 30.2228 14.9567 29.9212 15.4737C29.6229 15.9908 29.2086 16.3984 28.6783 16.6967C28.1513 16.9917 27.5464 17.1392 26.8636 17.1392Z" fill="white"/>
</svg>
